<svg xmlns="http://www.w3.org/2000/svg" fill="none" viewBox="0 0 24 25"><path fill="#4154ce" fill-rule="evenodd" d="M4.12623 4.67056C3.81363 4.94771 3.75 5.1544 3.75 5.2771 3.75 5.3998 3.81363 5.60649 4.12623 5.88364 4.43796 6.16002 4.93183 6.44318 5.60649 6.69617 6.95026 7.20009 8.85699 7.5271 11 7.5271 13.143 7.5271 15.0497 7.20009 16.3935 6.69617 17.0682 6.44318 17.562 6.16002 17.8738 5.88364 18.1864 5.60649 18.25 5.3998 18.25 5.2771 18.25 5.1544 18.1864 4.94771 17.8738 4.67056 17.562 4.39418 17.0682 4.11102 16.3935 3.85803 15.0497 3.35411 13.143 3.0271 11 3.0271 8.85699 3.0271 6.95026 3.35411 5.60649 3.85803 4.93183 4.11102 4.43796 4.39418 4.12623 4.67056zM5.0798 2.45353C6.63146 1.87166 8.72474 1.5271 11 1.5271 13.2753 1.5271 15.3685 1.87166 16.9202 2.45353 17.6933 2.74343 18.371 3.10672 18.8689 3.54817 19.3659 3.98885 19.75 4.57138 19.75 5.2771 19.75 5.98282 19.3659 6.56535 18.8689 7.00603 18.371 7.44748 17.6933 7.81077 16.9202 8.10067 15.3685 8.68254 13.2753 9.0271 11 9.0271 8.72474 9.0271 6.63146 8.68254 5.0798 8.10067 4.30674 7.81077 3.62904 7.44748 3.13112 7.00603 2.63408 6.56535 2.25 5.98282 2.25 5.2771 2.25 4.57138 2.63408 3.98885 3.13112 3.54817 3.62904 3.10672 4.30674 2.74343 5.0798 2.45353zM5.28175 10.903C5.401 10.5063 5.81924 10.2814 6.21591 10.4006 6.77946 10.5701 7.41726 10.7118 8.11256 10.8173 8.52208 10.8795 8.80367 11.2618 8.74151 11.6714 8.67934 12.0809 8.29696 12.3625 7.88744 12.3003 7.13141 12.1856 6.4237 12.0294 5.78409 11.8371 5.38741 11.7179 5.16251 11.2997 5.28175 10.903zM5.28175 17.903C5.401 17.5063 5.81924 17.2814 6.21591 17.4006 6.77946 17.5701 7.41726 17.7118 8.11256 17.8173 8.52208 17.8795 8.80367 18.2618 8.74151 18.6714 8.67934 19.0809 8.29696 19.3625 7.88744 19.3003 7.13141 19.1856 6.4237 19.0294 5.78409 18.8371 5.38741 18.7179 5.16251 18.2997 5.28175 17.903zM19.6647 12.5484C19.2622 12.6463 19.0154 13.052 19.1133 13.4545L19.2516 14.0227C18.5897 13.6791 17.8373 13.4847 17.0404 13.4847 14.3981 13.4847 12.25 15.6175 12.25 18.2559 12.25 20.8943 14.3981 23.0271 17.0404 23.0271 19.3562 23.0271 21.2902 21.3902 21.7349 19.21 21.8176 18.8042 21.5557 18.408 21.1499 18.3253 20.744 18.2425 20.3479 18.5044 20.2651 18.9103 19.9611 20.401 18.6341 21.5271 17.0404 21.5271 15.2198 21.5271 13.75 20.0592 13.75 18.2559 13.75 16.4526 15.2198 14.9847 17.0404 14.9847 17.7828 14.9847 18.4656 15.2284 19.0156 15.6396 19.0337 15.6532 19.0525 15.6659 19.0718 15.6778L20.0198 16.2609C20.2787 16.4201 20.6082 16.4073 20.854 16.2285 21.0998 16.0496 21.2133 15.74 21.1414 15.4447L20.5708 13.0997C20.4728 12.6973 20.0671 12.4504 19.6647 12.5484z" class="color141b34 svgShape" clip-rule="evenodd"/><path fill="#4154ce" fill-rule="evenodd" d="M3 4.5271C3.41421 4.5271 3.75 4.86289 3.75 5.2771V19.2771C3.75 19.3998 3.81363 19.6065 4.12623 19.8836C4.43796 20.16 4.93183 20.4432 5.60649 20.6962C6.95026 21.2001 8.85699 21.5271 11 21.5271C11.0819 21.5271 11.1636 21.5266 11.2449 21.5257C11.6591 21.5208 11.9988 21.8527 12.0036 22.2669C12.0084 22.681 11.6766 23.0207 11.2624 23.0256C11.1753 23.0266 11.0878 23.0271 11 23.0271C8.72474 23.0271 6.63146 22.6825 5.0798 22.1007C4.30674 21.8108 3.62904 21.4475 3.13112 21.006C2.63408 20.5654 2.25 19.9828 2.25 19.2771V5.2771C2.25 4.86289 2.58579 4.5271 3 4.5271ZM19 4.5271C19.4142 4.5271 19.75 4.86289 19.75 5.2771V10.2771C19.75 10.6913 19.4142 11.0271 19 11.0271C18.5858 11.0271 18.25 10.6913 18.25 10.2771V5.2771C18.25 4.86289 18.5858 4.5271 19 4.5271Z" class="color141b34 svgShape" clip-rule="evenodd"/><path fill="#4154ce" fill-rule="evenodd" d="M3 11.5271C3.41421 11.5271 3.75 11.8629 3.75 12.2771C3.75 12.397 3.8103 12.5961 4.10417 12.8638C4.39822 13.1317 4.86597 13.4085 5.50922 13.659C6.79067 14.158 8.61646 14.4937 10.686 14.5248C11.1002 14.531 11.4309 14.8717 11.4247 15.2859C11.4185 15.7001 11.0777 16.0308 10.6635 16.0246C8.46562 15.9916 6.45402 15.6366 4.96495 15.0568C4.22294 14.7679 3.57214 14.4083 3.09397 13.9726C2.61561 13.5368 2.25 12.9652 2.25 12.2771C2.25 11.8629 2.58579 11.5271 3 11.5271Z" class="color141b34 svgShape" clip-rule="evenodd"/></svg>