<svg xmlns="http://www.w3.org/2000/svg" fill="none" viewBox="0 0 24 25"><path fill="#4154ce" fill-rule="evenodd" d="M8.85482 6.63904C8.90041 7.05073 8.60362 7.42144 8.19192 7.46702C6.76921 7.62456 5.59518 7.89919 4.79938 8.22801C4.39871 8.39356 4.13413 8.55659 3.98205 8.69388C3.91175 8.75735 3.88013 8.80111 3.8665 8.82492C3.88669 8.86165 3.95079 8.95071 4.14422 9.08312C4.44516 9.2891 4.92975 9.50447 5.59601 9.69736C5.79811 9.75587 6.01303 9.81122 6.23961 9.86299C6.30497 9.86869 6.36889 9.88296 6.42979 9.90502C7.65673 10.1672 9.19845 10.3273 10.8872 10.3273C13.0132 10.3273 14.9056 10.0735 16.2302 9.68218C16.6274 9.56482 17.0446 9.7917 17.162 10.1889C17.2793 10.5862 17.0525 11.0033 16.6552 11.1207C15.1565 11.5635 13.1138 11.8273 10.8872 11.8273C9.16289 11.8273 7.54932 11.6691 6.21332 11.3923C5.7584 11.5614 5.42612 11.7422 5.21273 11.9125C5.0931 12.008 5.02904 12.0858 4.99744 12.1379C4.98233 12.1629 4.97588 12.1798 4.97315 12.1889C4.97058 12.1974 4.97049 12.2016 4.97049 12.2032C4.97049 12.2044 4.97028 12.2121 4.97785 12.2306C4.98614 12.2507 5.00486 12.2859 5.04549 12.3347C5.13028 12.4363 5.28539 12.5668 5.53817 12.7087C6.04412 12.9926 6.81672 13.2532 7.79811 13.4369C8.70465 13.6066 9.75838 13.705 10.8872 13.705C12.538 13.705 14.02 13.4946 15.1146 13.1637C15.5111 13.0438 15.9296 13.2681 16.0495 13.6646C16.1694 14.0611 15.9451 14.4797 15.5486 14.5995C14.2842 14.9818 12.6512 15.205 10.8872 15.205C9.78002 15.205 8.72782 15.1171 7.7876 14.9585C7.26613 15.2668 7.19271 15.5124 7.19271 15.5809C7.19271 15.6229 7.21057 15.7361 7.39821 15.9159C7.58782 16.0976 7.90187 16.2958 8.35162 16.4781C9.24725 16.8411 10.5362 17.0827 11.9983 17.0827C12.7469 17.0827 13.4547 17.0193 14.0897 16.9068C14.4976 16.8346 14.8868 17.1067 14.959 17.5145C15.0312 17.9224 14.7591 18.3116 14.3513 18.3838C13.6253 18.5124 12.8298 18.5827 11.9983 18.5827C10.3921 18.5827 8.90325 18.3202 7.78816 17.8682C7.23256 17.643 6.73302 17.356 6.36037 16.9989C5.98576 16.6399 5.69271 16.1607 5.69271 15.5809C5.69271 15.185 5.82431 14.8387 6.03417 14.5395C5.57227 14.3894 5.15698 14.2148 4.80407 14.0168C4.15394 13.6519 3.47049 13.0623 3.47049 12.2032C3.47049 11.6045 3.81008 11.1355 4.20426 10.8001C3.86234 10.6574 3.55581 10.4981 3.29696 10.3209C2.83499 10.0047 2.35938 9.5124 2.35938 8.82552C2.35938 8.29397 2.64947 7.87607 2.9769 7.58048C3.30548 7.28384 3.7427 7.04161 4.22656 6.84169C5.19982 6.43955 6.52579 6.14235 8.02683 5.97614C8.43853 5.93055 8.80923 6.22734 8.85482 6.63904Z" class="color141b34 svgShape" clip-rule="evenodd"/><path fill="#4154ce" fill-rule="evenodd" d="M3.21294 19.8711C2.77717 19.5692 2.75 19.3798 2.75 19.3471 2.75 19.191 2.86568 18.8507 3.62153 18.4427 4.35063 18.049 5.50333 17.6974 7.10807 17.4637 7.51796 17.4041 7.80186 17.0234 7.74217 16.6135 7.68249 16.2036 7.30182 15.9197 6.89193 15.9794 5.20396 16.2252 3.85666 16.6111 2.90894 17.1227 1.98797 17.6199 1.25 18.3527 1.25 19.3471 1.25 20.1234 1.78247 20.7049 2.35876 21.1041 2.95763 21.519 3.77522 21.8624 4.71804 22.1387 6.61356 22.6941 9.1879 23.0271 12 23.0271 14.8121 23.0271 17.3864 22.6941 19.282 22.1387 20.2248 21.8624 21.0424 21.519 21.6412 21.1041 22.2175 20.7049 22.75 20.1234 22.75 19.3471 22.75 18.9328 22.4142 18.5971 22 18.5971 21.5858 18.5971 21.25 18.9328 21.25 19.3471 21.25 19.3798 21.2228 19.5692 20.7871 19.8711 20.3739 20.1573 19.727 20.4452 18.8602 20.6992 17.1364 21.2043 14.7108 21.5271 12 21.5271 9.28925 21.5271 6.86359 21.2043 5.13982 20.6992 4.273 20.4452 3.62612 20.1573 3.21294 19.8711zM20.6966 10.0518C20.3658 9.75658 19.8114 9.56692 18.9474 9.79108 18.5465 9.8951 18.1371 9.6544 18.0331 9.25346 17.9291 8.85252 18.1698 8.44317 18.5707 8.33915 19.8144 8.01649 20.9159 8.23695 21.6955 8.93283 22.4566 9.61228 22.7899 10.6381 22.7451 11.6943 22.6549 13.8244 21.0579 16.2462 17.8108 17.4258 17.4214 17.5673 16.9912 17.3663 16.8498 16.977 16.7083 16.5877 16.9093 16.1574 17.2986 16.016 20.0733 15.008 21.1861 13.0551 21.2465 11.6308 21.277 10.9099 21.0457 10.3635 20.6966 10.0518zM18.298 2.15383C18.366 2.56241 18.09 2.94883 17.6814 3.01692 17.4294 3.05892 17.0569 3.20546 16.7976 3.47399 16.5739 3.7057 16.3856 4.07269 16.5156 4.72261 16.9002 6.6453 16.406 7.91714 15.8161 8.40881 15.4979 8.674 15.025 8.63105 14.7598 8.31286 14.4946 7.99467 14.5376 7.52174 14.8558 7.25655 14.854 7.25799 14.8547 7.25716 14.8574 7.25385 14.8759 7.23081 14.9913 7.08752 15.0737 6.7482 15.1629 6.38133 15.2042 5.81413 15.0448 5.01682 14.8192 3.88897 15.1495 3.02138 15.7185 2.4321 16.2519 1.87965 16.9461 1.61878 17.4349 1.53732 17.8435 1.46924 18.2299 1.74526 18.298 2.15383zM13.8483 2.13005C13.9295 2.53622 13.6661 2.93133 13.2599 3.01256 13.0371 3.05711 12.6684 3.22115 12.3971 3.55839 12.1471 3.86901 11.9287 4.38894 12.0747 5.26492 12.2622 6.39017 12.2379 7.18278 12.0821 7.76957 11.917 8.3914 11.6201 8.71943 11.421 8.91852 11.1281 9.21144 10.6532 9.21147 10.3603 8.9186 10.0674 8.62573 10.0674 8.15086 10.3603 7.85794 10.4574 7.76074 10.5604 7.65544 10.6323 7.38468 10.7135 7.07888 10.7631 6.51963 10.5951 5.51154 10.3855 4.25419 10.6856 3.29264 11.2284 2.61808 11.7497 1.97013 12.4477 1.64528 12.9658 1.54168 13.3719 1.46046 13.7671 1.72388 13.8483 2.13005z" class="color141b34 svgShape" clip-rule="evenodd"/></svg>