<svg xmlns="http://www.w3.org/2000/svg" viewBox="0 0 32 32"><path fill="#4154ce" d="M7.25 18.1a5.24 5.24 0 1 0 5.24 5.24A5.25 5.25 0 0 0 7.25 18.1zm0 8.47a3.24 3.24 0 1 1 3.24-3.23A3.24 3.24 0 0 1 7.25 26.57zM24.75 18.1A5.24 5.24 0 1 0 30 23.34 5.25 5.25 0 0 0 24.75 18.1zm0 8.47A3.24 3.24 0 1 1 28 23.34 3.24 3.24 0 0 1 24.75 26.57z" class="color000000 svgShape"/><path fill="#4154ce" d="M21.09 17.43a.1.1 0 0 0 0-.05l.06 0s0-.08.08-.11l.12-.16a1.27 1.27 0 0 0 .06-.18 1.21 1.21 0 0 0 .05-.18 1.15 1.15 0 0 0 0-.19.58.58 0 0 0 0-.19.71.71 0 0 0-.08-.18s0-.09-.05-.12 0 0 0 0l0-.05-6.5-7a1 1 0 1 0-1.47 1.36l0 0-3.29 2H7.17a1 1 0 0 0 0 2h3.14a1 1 0 0 0 .34-.06l.09 0 .09 0 3.88-2.36L19 16.46l-3 2.11a1 1 0 0 0-.65.93v5.25a1 1 0 1 0 2 0V20.07zM11 8.77a2.61 2.61 0 1 0-2.61-2.6A2.6 2.6 0 0 0 11 8.77zm0-3.21a.61.61 0 1 1-.61.61A.6.6 0 0 1 11 5.56z" class="color000000 svgShape"/></svg>